<?xml version="1.0" encoding="UTF-8"?>
<svg id="Layer_2" data-name="Layer 2" xmlns="http://www.w3.org/2000/svg" xmlns:xlink="http://www.w3.org/1999/xlink" viewBox="0 0 564.14 169.88">
  <defs>
    <style>
      .cls-1 {
        fill: url(#linear-gradient);
      }

      .cls-2 {
        fill: #fff;
      }

      .cls-3 {
        fill: url(#linear-gradient-3);
      }

      .cls-4 {
        fill: url(#linear-gradient-2);
      }
    </style>
    <linearGradient id="linear-gradient" x1="-.26" y1="136.92" x2="51.57" y2="38.71" gradientUnits="userSpaceOnUse">
      <stop offset="0" stop-color="#9307a0"/>
      <stop offset=".42" stop-color="#7e007b"/>
      <stop offset=".43" stop-color="#7a057d"/>
      <stop offset=".51" stop-color="#5f3990"/>
      <stop offset=".59" stop-color="#4765a1"/>
      <stop offset=".67" stop-color="#3389ae"/>
      <stop offset=".75" stop-color="#24a5b9"/>
      <stop offset=".84" stop-color="#19b9c0"/>
      <stop offset=".92" stop-color="#13c5c5"/>
      <stop offset="1" stop-color="#11c9c7"/>
    </linearGradient>
    <linearGradient id="linear-gradient-2" x1="18.59" y1="146.87" x2="70.43" y2="48.66" gradientUnits="userSpaceOnUse">
      <stop offset="0" stop-color="#9307a0"/>
      <stop offset=".42" stop-color="#7e007b"/>
      <stop offset=".43" stop-color="#7a057d"/>
      <stop offset=".51" stop-color="#5f3990"/>
      <stop offset=".59" stop-color="#4765a1"/>
      <stop offset=".67" stop-color="#3389ae"/>
      <stop offset=".75" stop-color="#24a5b9"/>
      <stop offset=".83" stop-color="#19b9c0"/>
      <stop offset=".91" stop-color="#13c5c5"/>
      <stop offset="1" stop-color="#11c9c7"/>
    </linearGradient>
    <linearGradient id="linear-gradient-3" x1="61.37" y1="169.45" x2="113.21" y2="71.24" gradientUnits="userSpaceOnUse">
      <stop offset="0" stop-color="#9307a0"/>
      <stop offset=".04" stop-color="#8d0596"/>
      <stop offset=".14" stop-color="#840287"/>
      <stop offset=".26" stop-color="#7f007d"/>
      <stop offset=".42" stop-color="#7e007b"/>
      <stop offset=".43" stop-color="#7a057d"/>
      <stop offset=".51" stop-color="#5f3990"/>
      <stop offset=".59" stop-color="#4765a1"/>
      <stop offset=".67" stop-color="#3389ae"/>
      <stop offset=".75" stop-color="#24a5b9"/>
      <stop offset=".84" stop-color="#19b9c0"/>
      <stop offset=".92" stop-color="#13c5c5"/>
      <stop offset="1" stop-color="#11c9c7"/>
    </linearGradient>
  </defs>
  <g id="Artwork">
    <g>
      <g>
        <g>
          <path class="cls-2" d="m507.93,86.73c-.35-.43-.35-1.13,0-1.56l47.35-59.97c.34-.43.17-.78-.38-.78h-54.46c-.55,0-1.28.35-1.63.78l-19.71,24.36c-.35.43-.64.79-.66.82s-.31-.31-.66-.74l-19.84-24.43c-.35-.43-1.08-.78-1.63-.78h-54.46c-.55,0-.72.35-.38.78l103.44,130.77c.34.43,1.07.78,1.62.78h57.07c.55,0,.72-.35.37-.78l-56.03-69.24Z"/>
          <path class="cls-2" d="m441.14,97.75c-.34-.43-.9-.43-1.25,0l-47.12,58.23c-.35.43-.18.78.37.78h57.07c.55,0,1.28-.35,1.62-.78l17.04-21.59c.34-.43.34-1.14,0-1.57l-27.73-35.06Z"/>
        </g>
        <g>
          <rect class="cls-2" x="338.53" y="71.5" width="44.58" height="85.25" rx="1" ry="1"/>
          <circle class="cls-2" cx="360.82" cy="35.41" r="22.29" transform="translate(1.76 85.62) rotate(-13.57)"/>
        </g>
        <g>
          <rect class="cls-2" x="167.94" y="24.41" width="44.57" height="132.34" rx="1" ry="1"/>
          <path class="cls-2" d="m328.86,155.98c.35.43.18.78-.37.78h-57.06c-.55,0-1.28-.35-1.62-.78l-25.81-32.7c-.34-.43-.9-1.14-1.24-1.57l-27.6-34.94c-.34-.43-.34-1.13,0-1.56l27.58-34.08c.35-.43.91-1.13,1.26-1.55l19.71-24.35c.35-.43,1.08-.78,1.63-.78h54.46c.55,0,.72.35.38.78l-47.35,59.97c-.34.43-.34,1.13,0,1.56l56.02,69.24Z"/>
        </g>
      </g>
      <g>
        <g>
          <path class="cls-1" d="m25.19,125.08c1.1,0,2.16.24,3.06.68,1.26.63,1.98,1.58,2.42,2.26.35-.08.77-.18,1.22-.31-11.79-14.88-14.61-27.44-14.61-36.03v-28.56c-.28.12-.58.25-.85.37-.56.25-.93.44-1.11.57-.03.1-.1.31-.15.46-.3.93-.74,2.33-1.94,3.55-1.66,1.71-3.7,2.04-5.06,2.26-.22.04-.46.08-.65.11v21.24c0,8.9,2.45,21.3,12.03,35.64,1.5-1.42,3.53-2.25,5.63-2.25Z"/>
          <path class="cls-4" d="m17.28,46.91v-22.51c3.09-.93,13.73-4.12,24.88-7.29,23.9-6.79,28.42-7.32,29.05-7.36h.08s.08,0,.08,0c.64.04,5.16.57,29.05,7.36,11.14,3.17,21.79,6.36,24.88,7.29v47c2.03.75,4.61,1.29,9.75,1.38V23.19c0-3.63-2.64-7-6.16-7.9-1.23-.37-13.23-3.99-25.8-7.56C75.9,0,72.55,0,71.29,0s-4.61,0-31.8,7.73c-12.57,3.57-24.57,7.19-25.8,7.56-3.52.9-6.16,4.27-6.16,7.9v29.65c2.48-1.68,5.94-3.88,9.75-5.94Z"/>
          <path class="cls-3" d="m130.92,94.13c-1.53,0-2.95-.36-4.23-1.07-.52-.29-.98-.62-1.39-.98-.11,10.88-4.75,27.9-25.93,47.88-5.96,5.62-12.86,11.03-19.42,15.23-4.84,3.1-7.5,4.3-8.67,4.75-1.17-.45-3.83-1.66-8.67-4.75-4.45-2.85-9.05-6.26-13.42-9.92-1.38-.12-2.72-.29-4.04-.46-1.11-.14-2.22-.29-3.34-.39-1.05-.1-1.98-.15-2.84-.15-1.82,0-3.34.23-4.64.68.71.7,1.43,1.39,2.17,2.1,6.39,6.03,13.79,11.84,20.85,16.35,4.61,2.95,10.76,6.47,13.92,6.47,0,0,0,0,0,0,0,0,0,0,0,0,3.15,0,9.31-3.53,13.92-6.47,7.06-4.52,14.46-10.32,20.85-16.35,22.97-21.68,28.54-40.93,28.96-53.74-1.22.47-2.62.82-4.1.82Z"/>
        </g>
        <path class="cls-2" d="m43.71,93.64c-2.77-6.73-1.73-14.15.32-18.35,2.35-6.84,15.24-23.1,9.39-25.02-5.85-1.92-27.89,4.51-38.72,9.37-1.12.51-2.3,1.09-2.95,2.14-.64,1.05-.67,2.46-1.53,3.34-1.05,1.08-2.81.9-4.24,1.37-1.38.45-2.51,1.61-2.93,2.99-.08.24-.54.18-.66.1-.61-.41-.96-.9-1.04-1.63-.09-.81.57-1.64.25-2.38-.18-.4-.59-.63-.93-.91-.33-.28-.62-.74-.43-1.14.15-.31.58-.54.47-.87-.07-.23-.37-.29-.54-.46-.23-.22-.2-.61-.03-.87.17-.27.44-.44.71-.61,0,0,5.06-1.67,8.76-4.19,3.7-2.52,13.91-9.19,22.01-10.87-.04-1,.1-2.02.43-2.96l.28-.3c10.03.87,19.37-5.46,29.42-6.01,1.49-.08,3-.03,4.4.47,1.03.37,2.57.69,3.62.35.24-1.51.2-3.06-.13-4.55-.29-1.31-.79-2.68-.35-3.94.19-.54.53-1,.9-1.43,2.7-3.17,7.23-4.91,11.2-3.69,2.29.7,4.39,2.56,4.64,4.94.14,1.35-.31,2.68-.53,4.02-.34,1.98-.18,4.01-.27,6.02-.09,2.01-.46,4.1-1.69,5.69l-.76.4c1.08-.31,2.13.56,2.77,1.47.64.91.84,2.01,1.86,2.46.9.29,3.41-.1,9.63,4.14,1.52,1.03,3.55.67,5.31,1.19,2.21.64,3.74,2.76,4.29,4.99.14.57.23,1.19.08,1.76-.34,1.35-1.87,2.1-3.26,2.08-1.39-.02-2.7-.6-4.02-1.05-2.09-.72-4.29-1.12-6.49-1.2-1.25-.04-2.53.02-3.71-.39-1.03-.35-1.92-1.04-2.87-1.59-1.84-1.06-3.81-2.05-6.06-.51s-5.19,9.19-5.92,11.22c-.23,2.56,15.95-1.28,22.18-.8,2.55.2,12.86.92,22.19,4.66,4.89,1.96,6.34,4.17,20.47,3.86,4.97-.11,9.95-.07,14.87.66.44.07.94.18,1.17.56.28.45.05,1.04-.21,1.5-1.65,2.87-4.75,4.84-8.04,5.13-1.8.16-3.64-.16-5.41.23-2.3.51-4.16,2.14-6.17,3.38-2.01,1.24-4.61,2.09-6.67.95-1.84-1.02-2.54-3.19-2.95-5.31-1.53-.67-3.22-1-4.89-1.16-4.86-.47-9.74.37-14.63.52-4.48.14-9.22-.4-12.94-2.81-6.68,1.33-10.49,2.67-14.09,3.57s-8.1,3.84-7.43,6.08c1.27,2.84,4.74,7.71,3.87,7.83-3.3.44-4.79,3.71-6.41,3.68,1.44,5,7.92,24.8,6.62,29.51-.57,2.06-1.57,4.05-3.3,5.32-1.6,1.17-3.55,1.73-5.48,2.19-1.67.4-3.34.75-5.02,1.1-3.03.63-6.09,1.26-9.19,1.31-3.58.06-7.12-.65-10.68-.98-3.56-.34-7.29-.27-10.53,1.24-1.08.51-1.15,1.53-2,2.63-.85,1.1-2.65,1.73-4.76,4.14-1.66,1.9-3.22,3.98-3.9,6.41-.23.82-.4,1.71-1.01,2.29-.61.58-1.86.54-2.1-.28,0,0-1.71-3.33-1.64-5.14.05-1.2.36-2.38.68-3.54.67-2.4,1.44-4.78,2.6-6.99l-.34.56c.83-1.7.94-3.65,1.15-5.53.21-1.88.56-3.84,1.75-5.31,1.19-1.47,3.24-1.69,4.24-1.19s.96,2.08,2.79,2.73c1.83.65,8.82-2.26,13.36-3.31,4.54-1.05,9.15-2.12,13.8-1.89,1.97.1,3.97.46,5.84,1.12,0,0-7.74-11.25-8.31-20.47,0-1.59-1.42-2-2.07-2.34-.81-.42-4.99-4.22-8.08-11.72Z"/>
      </g>
    </g>
  </g>
</svg>