<svg width="366" height="84" viewBox="0 0 366 84" fill="none" xmlns="http://www.w3.org/2000/svg">
<path fill-rule="evenodd" clip-rule="evenodd" d="M5.37693 9.24204L2.21093 9.07439L2.19659 12.2718L2.19499 12.9383C2.19404 13.4575 2.19278 14.3538 2.19152 15.8639C2.189 18.8839 2.18648 24.3606 2.18648 34.1883V35.4507L5.93775 39.234C4.45243 40.1765 2.96008 41.1081 1.46088 42.0289L0.0117395 42.919L0 63.9962L17.303 81.4581L18.4389 81.533C39.6703 82.9317 61.5054 81.3798 81.9636 74.2615L84 73.553V48.2255L79.5741 43.7618C80.3282 43.011 81.0806 42.2538 81.8275 41.492L82.7005 40.6015V39.3491C82.7005 38.4847 82.7031 33.9577 82.7056 29.6449L82.7114 19.974L64.8894 2L63.1155 2.59932C44.6964 8.82238 24.941 10.278 5.37693 9.24204ZM64.0755 5.48918L79.6887 21.2356C79.6887 21.2356 79.6786 37.6178 79.6786 39.3491C78.9365 40.1061 78.1881 40.8592 77.4372 41.6067C76.7181 42.3225 75.9966 43.0331 75.2759 43.737L80.9781 49.4879V71.3804C61.0119 78.3276 39.6051 79.8732 18.6359 78.4917L3.02263 62.7351L3.03271 44.6319C4.74009 43.5832 6.43886 42.5206 8.12874 41.4436C9.00082 40.8879 9.87053 40.3283 10.7378 39.7649L5.2084 34.1883C5.2084 23.7569 5.21124 18.2286 5.21391 15.3372C5.21627 12.7806 5.21849 12.2855 5.21849 12.2855C6.22478 12.3388 7.23201 12.3856 8.23997 12.4256C27.065 13.1728 46.1422 11.5481 64.0755 5.48918Z" fill="white"/>
<path fill-rule="evenodd" clip-rule="evenodd" d="M5.21844 12.2855C25.0188 13.334 45.1819 11.8725 64.0754 5.48917L79.6887 21.2356C79.6887 21.2356 79.6786 37.6178 79.6786 39.3491C78.2256 40.8311 76.749 42.2981 75.2759 43.737L80.978 49.4879V71.3804C61.0119 78.3275 39.605 79.8732 18.6358 78.4917L3.02258 62.7351L3.03267 44.6319C5.62116 43.042 8.18985 41.4201 10.7378 39.7649L5.20836 34.1883C5.20836 14.5337 5.21844 12.2855 5.21844 12.2855Z" fill="#0D0D0D"/>
<path d="M73.6348 29.2004V37.9777C63.8941 47.3443 54.1534 55.5121 44.4229 62.7961C54.5967 62.1155 64.7603 60.4799 74.9442 57.5135C74.9442 60.7542 74.9442 63.9848 74.9442 67.2255C60.9023 71.3297 46.8706 72.8841 32.8388 72.8841C30.1191 72.8841 27.3994 72.8231 24.6797 72.7113V63.9339C34.4203 57.6861 44.161 50.7882 53.8916 42.8947C46.8908 43.7988 39.8899 44.1849 32.8891 44.1849C30.8745 44.1849 28.87 44.1544 26.8554 44.0934C26.8554 40.8527 26.8554 37.6221 26.8554 34.3814C28.8498 34.4424 30.8343 34.4728 32.8288 34.4728C46.4274 34.4728 60.026 33.0201 73.6247 29.1902L73.6348 29.2004Z" fill="white"/>
<path d="M169.46 61.5093V50.2454H140.38L167.546 33.2392V22.4907H119.914V33.7546H145.166L118 50.7608V61.5093H169.46Z" fill="white"/>
<path d="M226.982 48.9203H210.344C208.871 51.1289 206.957 51.8651 199.669 51.8651C191.644 51.8651 188.847 51.0553 188.626 44.6503H227.276V40.6748C227.276 26.0981 218.589 21.7545 199.963 21.7545H198.785C180.159 21.7545 172.061 26.0981 172.061 40.6748V43.3252C172.061 57.9019 180.159 62.2455 198.785 62.2455H200.11C219.031 62.2455 224.847 58.5645 226.982 48.9203ZM199.669 31.1779C207.399 31.1779 210.712 32.3558 210.712 37.0675V37.3619H188.699C189.215 31.9877 192.307 31.1779 199.669 31.1779Z" fill="white"/>
<path d="M285.12 61.5093V38.3926C285.12 25.6564 279.746 21.7545 260.605 21.7545H259.206C240.801 21.7545 235.132 26.2453 232.408 34.4171H249.636C250.813 32.2085 252.728 31.2515 258.912 31.2515C266.2 31.2515 268.556 32.3558 268.556 36.8466V37.4356L244.556 38.2454C236.016 38.5399 230.715 41.411 230.715 49.0675V49.6565C230.715 57.9756 236.31 62.2455 249.783 62.2455C260.679 62.2455 266.126 59.5216 268.114 54.589H268.556V61.5093H285.12ZM247.427 49.362V49.0675C247.427 46.7853 249.047 45.8282 253.096 45.681L268.556 45.1657V45.681C268.556 50.5399 263.623 53.3375 255.525 53.3375C249.635 53.3375 247.427 52.2332 247.427 49.362Z" fill="white"/>
<path d="M306.473 61.5093V9.97528H289.909V61.5093H306.473Z" fill="white"/>
<path d="M339.129 74.0247L366 22.4907H349.067L338.466 45.681H337.951L326.908 22.4907H309.092L329.043 61.7302L321.754 74.0247H339.129Z" fill="white"/>
</svg>
